PathFileType	4	(X/Y/Z)	22_2_65_p1_0-205.trc
DataRate	CameraRate	NumFrames	NumMarkers	Units	OrigDataRate	OrigDataStartFrame	OrigNumFrames
59.0	59.0	5	27	m	59.0	154	206
Frame#	Time	RHip			RKnee			RAnkle			RBigToe			RSmallToe			RHeel			LHip			LKnee			LAnkle			LBigToe			LSmallToe			LHeel			Neck			Head			Nose			RShoulder			RElbow			RWrist			RThumb			RIndex			RPinky			LShoulder			LElbow			LWrist			LThumb			LIndex			LPinky			
		X1	Y1	Z1	X2	Y2	Z2	X3	Y3	Z3	X4	Y4	Z4	X5	Y5	Z5	X6	Y6	Z6	X7	Y7	Z7	X8	Y8	Z8	X9	Y9	Z9	X10	Y10	Z10	X11	Y11	Z11	X12	Y12	Z12	X13	Y13	Z13	X14	Y14	Z14	X15	Y15	Z15	X16	Y16	Z16	X17	Y17	Z17	X18	Y18	Z18	X19	Y19	Z19	X20	Y20	Z20	X21	Y21	Z21	X22	Y22	Z22	X23	Y23	Z23	X24	Y24	Z24	X25	Y25	Z25	X26	Y26	Z26	X27	Y27	Z27	
154	2.610169491525424	0.2485119815565914	0.6004198210220258	1.048122757536288	0.27246415850777106	0.780787070999581	1.4310317401158985	0.29416125901420387	0.9640830877645561	1.8353404117100438	0.2607766974555572	0.7363590230580058	1.8837966009126144	0.3255278216306375	0.7976016960363813	1.890972451161411	0.28847753568858187	1.0106448798676853	1.8746212590169957	0.03943876588248136	0.6460675136457562	1.0542844875069886	0.07907261538219355	0.7940837537021976	1.4307054699757993	0.0926647930040707	0.9037763122475264	1.8203651213967667	0.10450115226413406	0.7432087140731205	1.8816535144200957	0.05180472755184588	0.7742882316510463	1.8840366678750542	0.11711354429564537	0.9784639016306604	1.869604129773012	0.11751420471221391	0.482888675995812	0.4831121168632824	0.09797242369517666	0.34485179261661875	0.2516099647615146	0.08089319507601081	0.3253990550439325	0.40470091894053134	0.26252146121322684	0.4635442065629535	0.5657352817770442	0.35702660687341037	0.5304240577135084	0.8084407065598253	0.35663969106711435	0.5124946433470018	1.0740053977221642	0.309699381805769	0.5730930696212261	1.2086952641169573	0.3182456665535237	0.5708579524977333	1.228674704911013	0.3549770317782625	0.5642639066200329	1.213791974662937	-0.044447545289814296	0.5019338170693767	0.565955657387885	-0.07830679559632514	0.6304366585633239	0.8275384024489538	-0.048472535912481	0.5858360742592892	1.0673776211339288	0.01430782870826855	0.5518430509369688	1.1656018351090862	-0.018161110730785055	0.5838020234625182	1.1860138398921127	-0.05169926878012717	0.5589292059763581	1.1868295911156022
155	2.6271186440677967	0.254228227380672	0.6135115578644901	1.0490481603139554	0.2724495306556467	0.7806935763554459	1.4309939747433256	0.2941947246725027	0.9638821276065959	1.8353429463817716	0.2611535326742283	0.7372496021300818	1.8839041700006722	0.3261163075206656	0.798498971000199	1.891128403317901	0.28960059542548655	1.0093905828699012	1.8695098452322363	0.03949420438702894	0.6460024427087053	1.0542654452589142	0.07906045120220355	0.7940868309544897	1.43057114202211	0.09268055125197208	0.9036496344652386	1.820373813535075	0.10451354908691113	0.7428079567904782	1.8816316362481764	0.05194351795991725	0.773944226567396	1.8838879515872773	0.11694776340079108	0.977861032675231	1.8694174779812576	0.11743704459850796	0.4827967895871052	0.4830040290188319	0.09394150665211971	0.33565657061125326	0.25656221652910954	0.08087211667169057	0.32524715843104374	0.40464544984676043	0.26244551469963323	0.46327010709188077	0.5655275274962746	0.3569916175806641	0.5303950251949013	0.8083959337107769	0.3567391209005706	0.5124969203133384	1.0739047003551454	0.30969758929839675	0.573075425952548	1.2087000253449525	0.3181945227410109	0.5708213765938532	1.2285852480794122	0.3551655833261672	0.5649357213616102	1.2138082405091186	-0.04396875315125989	0.5040153775117654	0.5696048105511183	-0.07837167429642918	0.6307173022640798	0.8276808260236892	-0.048537006171971396	0.5859183835391292	1.067452745042362	0.008158019615855779	0.5787615992956271	1.1697429519318032	-0.021256742197319982	0.5974847397253342	1.1881572307769541	-0.05388459447091936	0.5703318057448014	1.1853512663820212
156	2.6440677966101696	0.2540389481275549	0.61441847079954	1.0527216553566818	0.27483074327421086	0.7627933090398413	1.4228225129211813	0.2942851603092397	0.9637312756245834	1.8352947177837435	0.2615919786318792	0.7375661830285726	1.8838286090759173	0.32673759266211577	0.7991192129203241	1.891199803626149	0.2902197293483036	1.0100723162320726	1.8696020156721274	0.039481249611936706	0.6459281302827257	1.0541952809584394	0.07888469497839459	0.7946349024068787	1.4267508226137091	0.0928143451621942	0.9037455174224015	1.820595751991773	0.10371434981773224	0.7442006969468401	1.8855578743560926	0.05175481457901623	0.7741427498683564	1.8842150993377305	0.12020685145265046	0.962115023771056	1.8732029735687958	0.1173972823360692	0.48273797309304245	0.48301136012887075	0.09395814431148047	0.33538708546617935	0.256504065241973	0.08084870149448842	0.3252953384648953	0.4046817220937369	0.26326531744049586	0.4658718390202873	0.5727945433938298	0.3570717351960978	0.5303701521731723	0.8085354137202052	0.3567249226687427	0.5128969999735116	1.0740421502056114	0.309811597166075	0.5730764577657061	1.2088554212750697	0.32212905323895835	0.5701210374174178	1.228166656964845	0.3545934474844214	0.5806209471405053	1.2165296133480357	-0.04438155379912793	0.5051169051863004	0.5730039787348339	-0.07809357693147664	0.6336197436870061	0.8350668748063956	-0.048539882861275134	0.5857379132759907	1.0675949989529396	0.008163298266038108	0.5789637710266494	1.1698779461016797	-0.021806717112854535	0.5988249942328403	1.1916589288887298	-0.05152242410053113	0.5586725417910902	1.1867629416686791
157	2.6610169491525424	0.2540862838875233	0.6146640344453489	1.0528985061474352	0.27880858777979445	0.7649708151738126	1.427445030305441	0.29431023460617367	0.9638281583421284	1.8353298398451923	0.26154952825525085	0.7374730581253558	1.883833110624065	0.3267370758033199	0.7989943439660234	1.891148883944991	0.2903276724990684	1.0103471523178957	1.8696828441871252	0.03945763871606571	0.6461231994477507	1.0542395076522988	0.0788674115404968	0.794841430081642	1.4268332453377808	0.09283194120248842	0.9038478694761324	1.820688227922642	0.10440607122250262	0.7425817146563993	1.8814298591085534	0.05194457239450151	0.7736540530413939	1.8838318707040778	0.12015355469840602	0.962125383704689	1.873269997853629	0.11805714877643012	0.4843053603565627	0.4863323061278048	0.09384738554238037	0.33554281547923986	0.256501264920057	0.0808408508201029	0.3253422551332339	0.4046992593583416	0.26249932508095797	0.4644090029371064	0.569457904852356	0.3570691483742239	0.5303187017586268	0.808509556717903	0.3567450101037878	0.5128250677975911	1.0740208174800654	0.30970160199162167	0.5730302915693176	1.2089327125216547	0.3222056661882615	0.5701987641412399	1.228374795562704	0.35672645569057304	0.5669899832169333	1.2142859616660562	-0.044296882387969624	0.5049540246611542	0.5729951197545884	-0.0780184640942038	0.6336489220542307	0.835022499267852	-0.04860120962194993	0.5855621022116874	1.0677261505414084	0.0047284804553432	0.5922291443456335	1.1719324570607774	-0.026615287965900652	0.6005572583067705	1.1954115292688132	-0.055511314544571456	0.54406537099867	1.1847279002323614
158	2.6779661016949152	0.2540693794683404	0.6146027937897698	1.0529294127084026	0.27482984221256523	0.7628998256052693	1.4228542769011439	0.29423792384467734	0.9637580534545761	1.835304737707854	0.2611986261467145	0.7369787635463074	1.883795849262687	0.3262855241020545	0.7982450815494548	1.8909984991887654	0.28983276756722853	1.0093103599135838	1.869469991910494	0.03947607815483048	0.6458216907168494	1.0541680543122425	0.07902539185448154	0.7947806021273786	1.4266691670636116	0.09278900531132339	0.9037256188075001	1.8204757426787026	0.10444223203335888	0.7427520072662638	1.8813544818819332	0.05199770032336761	0.7731056717123207	1.8833475246447107	0.11848656924750516	0.9801619780961515	1.8737263136293187	0.11746656489147715	0.482683414979842	0.483004306373567	0.09333944412702974	0.33443804708965225	0.25369588024848716	0.08084037691934669	0.32530351407306707	0.40466083613467135	0.2632694798473763	0.4659635514520849	0.5729060851180694	0.3569671905817694	0.5311523462932538	0.8118734761041277	0.3568434300206604	0.512931179338914	1.0739979609981551	0.30972912811393416	0.5733068890820223	1.2088824593687377	0.32212852301317463	0.5704215422242646	1.2282761608658086	0.356625587545352	0.566799501268363	1.2142536780029347	-0.04434604525202873	0.5047728150654752	0.5729819206544099	-0.07801046771896882	0.6333920245138682	0.8349772835449307	-0.05302428368149063	0.5725564375852564	1.0665096811777737	0.0033872246383041954	0.5907021695145686	1.1672676366313977	-0.026345655106542694	0.5995834658600904	1.1921024056637457	-0.06274458611933226	0.555994113075941	1.1867306500828745
